<?xml version="1.0" encoding="UTF-8" standalone="no"?>
<!DOCTYPE svg PUBLIC "-//W3C//DTD SVG 1.1//EN" "http://www.w3.org/Graphics/SVG/1.1/DTD/svg11.dtd">
<svg width="100%" height="100%" viewBox="0 0 110 110" version="1.1" xmlns="http://www.w3.org/2000/svg" xmlns:xlink="http://www.w3.org/1999/xlink" xml:space="preserve" xmlns:serif="http://www.serif.com/" style="fill-rule:evenodd;clip-rule:evenodd;stroke-linejoin:round;stroke-miterlimit:2;">
    <path d="M10,57L9,57L9,25L10,25L10,57ZM10,25L10,21L11,21L11,25L10,25ZM11,21L11,19L12,19L12,21L11,21ZM12,19L12,17L13,17L13,19L12,19ZM13,17L13,16L14,16L14,17L13,17ZM14,16L14,15L15,15L15,16L14,16ZM15,15L15,14L16,14L16,15L15,15ZM16,14L16,13L17,13L17,14L16,14ZM17,13L17,12L19,12L19,13L17,13ZM19,12L19,11L22,11L22,12L19,12ZM22,11L22,10L27,10L27,11L22,11ZM27,10L27,9L83,9L83,10L27,10ZM83,10L88,10L88,11L83,11L83,10ZM88,11L91,11L91,12L88,12L88,11ZM91,12L93,12L93,13L91,13L91,12ZM93,13L94,13L94,14L93,14L93,13ZM94,14L95,14L95,15L94,15L94,14ZM95,15L96,15L96,16L95,16L95,15ZM96,16L97,16L97,17L96,17L96,16ZM97,17L98,17L98,19L97,19L97,17ZM98,19L99,19L99,21L98,21L98,19ZM99,21L100,21L100,25L99,25L99,21ZM100,25L101,25L101,57L100,57L100,25ZM100,57L100,60L99,60L99,57L100,57ZM99,60L99,62L98,62L98,60L99,60ZM98,62L98,64L97,64L97,62L98,62ZM97,64L97,65L96,65L96,64L97,64ZM96,65L96,66L95,66L95,65L96,65ZM95,66L95,67L94,67L94,66L95,66ZM94,67L94,68L92,68L92,67L94,67ZM92,68L92,69L89,69L89,68L92,68ZM89,69L89,70L86,70L86,69L89,69ZM86,70L86,71L83,71L83,70L86,70ZM83,71L83,72L78,72L78,71L83,71ZM78,72L78,73L72,73L72,72L78,72ZM72,73L72,74L71,74L71,73L72,73ZM71,74L71,76L70,76L70,74L71,74ZM70,76L70,77L69,77L69,76L70,76ZM69,77L69,78L68,78L68,77L69,77ZM68,78L68,80L67,80L67,78L68,78ZM67,80L67,81L66,81L66,80L67,80ZM66,81L66,82L65,82L65,81L66,81ZM65,82L65,83L64,83L64,82L65,82ZM64,83L64,84L63,84L63,83L64,83ZM63,84L63,85L62,85L62,84L63,84ZM62,85L62,86L61,86L61,85L62,85ZM61,86L61,87L60,87L60,86L61,86ZM60,87L60,88L58,88L58,87L60,87ZM58,88L58,89L57,89L57,88L58,88ZM57,89L57,90L53,90L53,89L57,89ZM53,89L51,89L51,88L53,88L53,89ZM51,88L49,88L49,87L51,87L51,88ZM49,87L47,87L47,86L49,86L49,87ZM47,86L46,86L46,85L47,85L47,86ZM46,85L44,85L44,84L46,84L46,85ZM44,84L42,84L42,83L44,83L44,84ZM42,83L41,83L41,82L42,82L42,83ZM41,82L40,82L40,81L41,81L41,82ZM40,81L39,81L39,80L40,80L40,81ZM39,80L38,80L38,79L39,79L39,80ZM38,79L37,79L37,78L38,78L38,79ZM37,78L36,78L36,77L37,77L37,78ZM36,77L35,77L35,76L36,76L36,77ZM35,76L34,76L34,75L35,75L35,76ZM34,75L33,75L33,74L34,74L34,75ZM33,74L32,74L32,72L33,72L33,74ZM32,72L27,72L27,71L32,71L32,72ZM27,71L24,71L24,70L27,70L27,71ZM24,70L21,70L21,69L24,69L24,70ZM21,69L18,69L18,68L21,68L21,69ZM18,68L16,68L16,67L18,67L18,68ZM16,67L15,67L15,66L16,66L16,67ZM15,66L14,66L14,65L15,65L15,66ZM14,65L13,65L13,64L14,64L14,65ZM13,64L12,64L12,62L13,62L13,64ZM12,62L11,62L11,60L12,60L12,62ZM11,60L10,60L10,57L11,57L11,60Z" style="fill:rgb(89,88,88);"/>
    <path d="M59,59L58,59L58,58L59,58L59,59ZM59,59L60,59L60,61L59,61L59,59ZM54,55L55,55L55,57L54,57L54,55ZM50,58L51,58L51,59L50,59L50,58ZM40,76L40,77L38,77L38,76L40,76ZM61,71L61,69L62,69L62,71L61,71ZM62,65L63,65L63,66L62,66L62,65ZM54,60L54,59L56,59L56,60L54,60ZM49,57L50,57L50,58L49,58L49,57ZM40,75L36,75L36,73L34,73L34,72L32,72L32,71L27,71L27,70L24,70L24,69L21,69L21,68L18,68L18,67L16,67L16,66L15,66L15,65L14,65L14,64L13,64L13,62L12,62L12,60L11,60L11,57L10,57L10,25L11,25L11,21L12,21L12,19L13,19L13,17L14,17L14,16L15,16L15,15L16,15L16,14L17,14L17,13L19,13L19,12L22,12L22,11L27,11L27,10L40,10L40,12L41,12L41,10L43,10L43,11L42,11L42,12L43,12L43,13L44,13L44,10L45,10L45,14L46,14L46,13L47,13L47,14L49,14L49,15L51,15L51,17L52,17L52,18L53,18L53,16L54,16L54,15L55,15L55,16L57,16L57,17L58,17L58,19L59,19L59,20L58,20L58,21L59,21L59,20L61,20L61,21L60,21L60,22L61,22L61,21L64,21L64,23L65,23L65,24L64,24L64,25L63,25L63,24L62,24L62,23L63,23L63,22L62,22L62,23L61,23L61,24L62,24L62,25L63,25L63,27L64,27L64,28L63,28L63,29L65,29L65,30L62,30L62,31L64,31L64,32L65,32L65,33L63,33L63,34L65,34L65,37L64,37L64,38L62,38L62,39L63,39L63,41L62,41L62,43L63,43L63,44L64,44L64,43L63,43L63,41L65,41L65,43L66,43L66,44L65,44L65,45L62,45L62,44L61,44L61,45L60,45L60,44L59,44L59,46L62,46L62,47L63,47L63,48L62,48L62,51L60,51L60,50L59,50L59,51L58,51L58,53L57,53L57,52L56,52L56,53L55,53L55,54L54,54L54,55L53,55L53,56L49,56L49,57L48,57L48,59L49,59L49,61L50,61L50,60L51,60L51,62L50,62L50,63L51,63L51,62L52,62L52,61L53,61L53,60L54,60L54,62L53,62L53,63L54,63L54,62L55,62L55,63L57,63L57,64L62,64L62,65L61,65L61,67L59,67L59,66L60,66L60,65L59,65L59,66L58,66L58,67L59,67L59,68L58,68L58,69L60,69L60,71L61,71L61,73L60,73L60,72L56,72L56,73L60,73L60,74L59,74L59,75L58,75L58,74L57,74L57,76L56,76L56,74L54,74L54,75L55,75L55,76L53,76L53,77L51,77L51,76L48,76L48,75L47,75L47,76L46,76L46,77L45,77L45,76L44,76L44,77L43,77L43,76L42,76L42,74L43,74L43,73L42,73L42,74L41,74L41,73L40,73L40,72L39,72L39,73L38,73L38,74L39,74L39,73L40,73L40,75ZM65,24L67,24L67,25L66,25L66,27L65,27L65,26L64,26L64,25L65,25L65,24ZM66,27L67,27L67,26L68,26L68,28L66,28L66,27ZM66,28L66,29L65,29L65,28L66,28ZM65,30L66,30L66,32L65,32L65,30ZM65,37L67,37L67,38L66,38L66,40L64,40L64,38L65,38L65,37ZM67,38L68,38L68,40L67,40L67,38ZM67,40L67,41L66,41L66,40L67,40ZM67,41L68,41L68,42L67,42L67,41ZM67,42L67,43L66,43L66,42L67,42ZM60,51L60,52L59,52L59,51L60,51ZM56,76L56,77L57,77L57,78L55,78L55,76L56,76ZM48,76L48,77L47,77L47,76L48,76ZM47,77L47,78L46,78L46,77L47,77ZM45,77L45,78L44,78L44,77L45,77ZM42,76L42,77L41,77L41,76L42,76ZM41,76L40,76L40,75L41,75L41,76ZM54,17L54,19L56,19L56,20L57,20L57,18L55,18L55,17L54,17ZM58,24L58,25L59,25L59,24L58,24ZM59,32L59,33L60,33L60,32L59,32ZM59,40L58,40L58,41L59,41L59,40ZM58,46L57,46L57,47L58,47L58,46ZM57,45L57,44L56,44L56,45L57,45ZM56,50L56,51L57,51L57,50L56,50ZM61,43L61,42L60,42L60,43L61,43ZM61,41L61,40L60,40L60,41L61,41ZM61,30L61,29L60,29L60,30L61,30ZM61,27L61,26L60,26L60,27L61,27ZM61,47L60,47L60,48L61,48L61,47ZM57,63L57,61L58,61L58,62L59,62L59,63L57,63ZM63,48L64,48L64,49L63,49L63,48ZM61,53L61,54L62,54L62,55L61,55L61,56L60,56L60,53L61,53ZM62,52L62,53L61,53L61,52L62,52ZM66,32L67,32L67,33L66,33L66,32ZM65,45L66,45L66,46L65,46L65,45ZM55,14L54,14L54,13L55,13L55,14ZM63,52L64,52L64,53L63,53L63,52ZM59,19L59,18L60,18L60,19L59,19ZM55,15L55,14L56,14L56,15L55,15ZM63,47L63,46L64,46L64,47L63,47ZM58,17L58,16L60,16L60,17L58,17ZM47,13L47,12L48,12L48,13L47,13ZM51,15L51,14L52,14L52,15L51,15ZM62,51L63,51L63,52L62,52L62,51ZM48,12L48,11L49,11L49,12L48,12ZM55,57L57,57L57,58L55,58L55,57ZM58,53L59,53L59,55L57,55L57,54L58,54L58,53ZM49,12L51,12L51,13L49,13L49,12ZM64,49L65,49L65,51L64,51L64,49ZM45,58L44,58L44,59L45,59L45,58ZM46,74L47,74L47,73L46,73L46,74ZM46,74L45,74L45,75L46,75L46,74ZM51,52L51,50L50,50L50,51L49,51L49,52L51,52ZM51,52L51,55L52,55L52,54L53,54L53,52L51,52ZM50,74L50,75L53,75L53,74L50,74ZM46,54L46,53L45,53L45,54L46,54ZM47,55L47,56L48,56L48,55L47,55ZM55,72L54,72L54,73L55,73L55,72ZM50,55L50,54L49,54L49,55L50,55ZM53,50L53,49L52,49L52,50L53,50ZM47,58L46,58L46,59L47,59L47,58ZM48,52L47,52L47,54L48,54L48,52ZM43,78L43,80L42,80L42,78L43,78ZM63,72L63,73L62,73L62,72L63,72ZM61,75L61,76L60,76L60,75L61,75ZM59,77L59,78L58,78L58,77L59,77ZM52,78L52,80L51,80L51,78L52,78ZM54,78L54,79L53,79L53,78L54,78ZM48,80L48,81L47,81L47,80L48,80ZM57,80L57,81L56,81L56,80L57,80ZM50,81L50,82L49,82L49,81L50,81ZM53,57L53,58L52,58L52,57L53,57ZM63,60L63,61L62,61L62,60L63,60ZM63,62L63,63L62,63L62,62L63,62ZM66,67L66,68L65,68L65,67L66,67ZM47,10L47,11L46,11L46,10L47,10ZM53,12L53,13L52,13L52,12L53,12ZM58,13L58,15L57,15L57,13L58,13ZM64,14L64,15L63,15L63,14L64,14ZM67,16L67,17L66,17L66,16L67,16ZM66,19L66,20L65,20L65,19L66,19ZM70,27L70,28L69,28L69,27L70,27ZM69,29L69,30L68,30L68,29L69,29ZM69,32L69,33L68,33L68,32L69,32ZM68,34L68,36L67,36L67,34L68,34ZM69,45L69,47L68,47L68,45L69,45ZM69,48L69,49L68,49L68,48L69,48Z" style="fill:rgb(229,228,227);"/>
    <path d="M43,12L42,12L42,11L43,11L43,10L44,10L44,13L43,13L43,12ZM56,19L54,19L54,17L55,17L55,18L57,18L57,20L56,20L56,19ZM51,52L53,52L53,54L52,54L52,55L51,55L51,52ZM51,52L49,52L49,51L50,51L50,50L51,50L51,52ZM46,74L46,73L47,73L47,74L46,74ZM46,74L46,75L45,75L45,74L46,74ZM40,73L39,73L39,72L40,72L40,73ZM51,62L51,63L50,63L50,62L51,62ZM34,74L33,74L33,72L34,72L34,73L36,73L36,75L40,75L40,76L38,76L38,77L40,77L40,76L41,76L41,77L42,77L42,76L43,76L43,77L44,77L44,78L45,78L45,77L46,77L46,78L47,78L47,77L48,77L48,76L51,76L51,77L53,77L53,76L55,76L55,78L57,78L57,77L56,77L56,76L57,76L57,74L58,74L58,75L59,75L59,74L60,74L60,73L61,73L61,71L62,71L62,69L61,69L61,71L60,71L60,69L58,69L58,68L59,68L59,67L61,67L61,65L62,65L62,66L63,66L63,65L62,65L62,64L57,64L57,63L59,63L59,62L58,62L58,61L57,61L57,63L55,63L55,62L54,62L54,60L56,60L56,59L54,59L54,60L53,60L53,61L52,61L52,62L51,62L51,60L50,60L50,61L49,61L49,59L48,59L48,57L49,57L49,58L50,58L50,59L51,59L51,58L50,58L50,57L49,57L49,56L53,56L53,55L54,55L54,57L55,57L55,58L57,58L57,57L55,57L55,55L54,55L54,54L55,54L55,53L56,53L56,52L57,52L57,53L58,53L58,54L57,54L57,55L59,55L59,53L58,53L58,51L59,51L59,52L60,52L60,51L62,51L62,52L61,52L61,53L60,53L60,56L61,56L61,55L62,55L62,54L61,54L61,53L62,53L62,52L63,52L63,53L64,53L64,52L63,52L63,51L62,51L62,48L63,48L63,49L64,49L64,51L65,51L65,49L64,49L64,48L63,48L63,47L64,47L64,46L63,46L63,47L62,47L62,46L59,46L59,44L60,44L60,45L61,45L61,44L62,44L62,45L65,45L65,46L66,46L66,45L65,45L65,44L66,44L66,43L67,43L67,42L68,42L68,41L67,41L67,40L68,40L68,38L67,38L67,37L65,37L65,34L63,34L63,33L65,33L65,32L66,32L66,33L67,33L67,32L66,32L66,30L65,30L65,29L66,29L66,28L68,28L68,26L67,26L67,27L66,27L66,25L67,25L67,24L65,24L65,23L64,23L64,21L61,21L61,20L59,20L59,19L60,19L60,18L59,18L59,19L58,19L58,17L60,17L60,16L58,16L58,17L57,17L57,16L55,16L55,15L56,15L56,14L55,14L55,13L54,13L54,14L55,14L55,15L54,15L54,16L53,16L53,18L52,18L52,17L51,17L51,15L52,15L52,14L51,14L51,15L49,15L49,14L47,14L47,13L48,13L48,12L49,12L49,13L51,13L51,12L49,12L49,11L48,11L48,12L47,12L47,13L46,13L46,14L45,14L45,10L46,10L46,11L47,11L47,10L83,10L83,11L88,11L88,12L91,12L91,13L93,13L93,14L94,14L94,15L95,15L95,16L96,16L96,17L97,17L97,19L98,19L98,21L99,21L99,25L100,25L100,57L99,57L99,60L98,60L98,62L97,62L97,64L96,64L96,65L95,65L95,66L94,66L94,67L92,67L92,68L89,68L89,69L86,69L86,70L83,70L83,71L78,71L78,72L72,72L72,73L71,73L71,74L70,74L70,76L69,76L69,77L68,77L68,78L67,78L67,80L66,80L66,81L65,81L65,82L64,82L64,83L63,83L63,84L62,84L62,85L61,85L61,86L60,86L60,87L58,87L58,88L57,88L57,89L53,89L53,88L51,88L51,87L49,87L49,86L47,86L47,85L46,85L46,84L44,84L44,83L42,83L42,82L41,82L41,81L40,81L40,80L39,80L39,79L38,79L38,78L37,78L37,77L36,77L36,76L35,76L35,75L34,75L34,74ZM40,75L40,73L41,73L41,74L42,74L42,76L41,76L41,75L40,75ZM44,77L44,76L45,76L45,77L44,77ZM46,77L46,76L47,76L47,77L46,77ZM47,76L47,75L48,75L48,76L47,76ZM55,76L55,75L54,75L54,74L56,74L56,76L55,76ZM59,51L59,50L60,50L60,51L59,51ZM66,43L65,43L65,41L63,41L63,39L62,39L62,38L64,38L64,40L66,40L66,41L67,41L67,42L66,42L66,43ZM64,38L64,37L65,37L65,38L64,38ZM65,32L64,32L64,31L62,31L62,30L65,30L65,32ZM65,29L63,29L63,28L64,28L64,27L63,27L63,25L64,25L64,26L65,26L65,27L66,27L66,28L65,28L65,29ZM64,25L64,24L65,24L65,25L64,25ZM43,78L42,78L42,80L43,80L43,78ZM51,78L51,80L52,80L52,78L51,78ZM50,81L49,81L49,82L50,82L50,81ZM48,81L48,80L47,80L47,81L48,81ZM54,78L53,78L53,79L54,79L54,78ZM58,77L58,78L59,78L59,77L58,77ZM57,81L57,80L56,80L56,81L57,81ZM60,75L60,76L61,76L61,75L60,75ZM62,72L62,73L63,73L63,72L62,72ZM62,63L63,63L63,62L62,62L62,63ZM62,60L62,61L63,61L63,60L62,60ZM60,61L60,59L59,59L59,58L58,58L58,59L59,59L59,61L60,61ZM53,58L53,57L52,57L52,58L53,58ZM66,68L66,67L65,67L65,68L66,68ZM65,20L66,20L66,19L65,19L65,20ZM63,15L64,15L64,14L63,14L63,15ZM57,15L58,15L58,13L57,13L57,15ZM52,13L53,13L53,12L52,12L52,13ZM67,16L66,16L66,17L67,17L67,16ZM70,28L70,27L69,27L69,28L70,28ZM69,49L69,48L68,48L68,49L69,49ZM69,47L69,45L68,45L68,47L69,47ZM69,33L69,32L68,32L68,33L69,33ZM69,30L69,29L68,29L68,30L69,30ZM67,40L66,40L66,38L67,38L67,40ZM67,34L67,36L68,36L68,34L67,34ZM59,66L59,65L60,65L60,66L59,66ZM63,25L62,25L62,24L63,24L63,25ZM39,73L39,74L38,74L38,73L39,73ZM63,43L64,43L64,44L63,44L63,43ZM62,23L62,22L63,22L63,23L62,23ZM62,24L61,24L61,23L62,23L62,24ZM59,20L59,21L58,21L58,20L59,20ZM59,67L58,67L58,66L59,66L59,67ZM60,73L56,73L56,72L60,72L60,73ZM54,62L54,63L53,63L53,62L54,62ZM63,41L63,43L62,43L62,41L63,41ZM42,74L42,73L43,73L43,74L42,74ZM61,21L61,22L60,22L60,21L61,21ZM41,10L41,12L40,12L40,10L41,10ZM59,24L59,25L58,25L58,24L59,24ZM61,26L61,27L60,27L60,26L61,26ZM61,29L61,30L60,30L60,29L61,29ZM60,32L60,33L59,33L59,32L60,32ZM59,40L59,41L58,41L58,40L59,40ZM61,40L61,41L60,41L60,40L61,40ZM61,42L61,43L60,43L60,42L61,42ZM57,44L57,45L56,45L56,44L57,44ZM58,46L58,47L57,47L57,46L58,46ZM61,47L61,48L60,48L60,47L61,47ZM53,49L53,50L52,50L52,49L53,49ZM57,50L57,51L56,51L56,50L57,50ZM48,52L48,54L47,54L47,52L48,52ZM46,53L46,54L45,54L45,53L46,53ZM50,54L50,55L49,55L49,54L50,54ZM48,55L48,56L47,56L47,55L48,55ZM45,58L45,59L44,59L44,58L45,58ZM47,58L47,59L46,59L46,58L47,58ZM55,72L55,73L54,73L54,72L55,72ZM53,74L53,75L50,75L50,74L53,74Z" style="fill:rgb(211,210,209);"/>
    <path d="M12,64L13,64L13,65L14,65L14,66L15,66L15,67L16,67L16,68L18,68L18,69L21,69L21,70L24,70L24,71L27,71L27,72L32,72L32,74L33,74L33,75L27,75L27,74L23,74L23,73L20,73L20,72L18,72L18,71L16,71L16,70L15,70L15,69L14,69L14,68L13,68L13,67L12,67L12,64ZM11,62L12,62L12,64L11,64L11,62ZM11,62L10,62L10,60L11,60L11,62ZM45,86L44,86L44,85L46,85L46,86L47,86L47,87L49,87L49,88L51,88L51,89L53,89L53,90L57,90L57,89L58,89L58,88L60,88L60,87L61,87L61,86L62,86L62,85L63,85L63,84L64,84L64,83L65,83L65,82L66,82L66,81L67,81L67,80L68,80L68,78L69,78L69,77L70,77L70,76L71,76L71,74L72,74L72,73L78,73L78,72L83,72L83,71L86,71L86,70L89,70L89,69L92,69L92,68L94,68L94,67L95,67L95,66L96,66L96,65L97,65L97,64L98,64L98,62L99,62L99,60L100,60L100,64L99,64L99,65L98,65L98,66L97,66L97,67L96,67L96,68L95,68L95,69L93,69L93,70L91,70L91,71L88,71L88,72L85,72L85,73L82,73L82,74L81,74L81,75L80,75L80,76L79,76L79,77L78,77L78,78L77,78L77,79L76,79L76,81L75,81L75,82L74,82L74,83L73,83L73,84L72,84L72,85L71,85L71,86L70,86L70,87L69,87L69,88L68,88L68,89L67,89L67,90L66,90L66,91L65,91L65,92L64,92L64,93L63,93L63,94L62,94L62,95L56,95L56,94L54,94L54,93L53,93L53,92L51,92L51,91L50,91L50,90L49,90L49,89L47,89L47,88L46,88L46,87L45,87L45,86Z" style="fill:rgb(153,152,151);"/>
</svg>
